<svg width="20" height="20" viewBox="0 0 20 20" fill="none" xmlns="http://www.w3.org/2000/svg">
<path d="M12.5 10.8335C12.5 10.1704 12.2366 9.53456 11.7677 9.06573C11.2989 8.59689 10.663 8.3335 9.99999 8.3335C9.33695 8.3335 8.70107 8.59689 8.23223 9.06573C7.76339 9.53456 7.5 10.1704 7.5 10.8335" stroke="#1E40AF" stroke-width="1.66666" stroke-linecap="round" stroke-linejoin="round"/>
<path d="M3.33325 16.2498V3.74983C3.33325 3.1973 3.55274 2.66739 3.94344 2.27669C4.33414 1.886 4.86404 1.6665 5.41657 1.6665H15.8332C16.0542 1.6665 16.2662 1.7543 16.4224 1.91058C16.5787 2.06686 16.6665 2.27882 16.6665 2.49983V17.4998C16.6665 17.7208 16.5787 17.9327 16.4224 18.089C16.2662 18.2453 16.0542 18.3331 15.8332 18.3331H5.41657C4.86404 18.3331 4.33414 18.1136 3.94344 17.7229C3.55274 17.3322 3.33325 16.8023 3.33325 16.2498ZM3.33325 16.2498C3.33325 15.6972 3.55274 15.1673 3.94344 14.7766C4.33414 14.3859 4.86404 14.1664 5.41657 14.1664H16.6665" stroke="#1E40AF" stroke-width="1.66666" stroke-linecap="round" stroke-linejoin="round"/>
<path d="M9.99991 8.33332C10.9204 8.33332 11.6666 7.58713 11.6666 6.66666C11.6666 5.74619 10.9204 5 9.99991 5C9.07944 5 8.33325 5.74619 8.33325 6.66666C8.33325 7.58713 9.07944 8.33332 9.99991 8.33332Z" stroke="#1E40AF" stroke-width="1.66666" stroke-linecap="round" stroke-linejoin="round"/>
</svg>
