<svg width="30" height="30" viewBox="0 0 30 30" fill="none" xmlns="http://www.w3.org/2000/svg">
<g clip-path="url(#clip0_49_1677)">
<path d="M8.26351 21.5971L3.74347 12.4555L9.60837 15.0251L12.8851 7.93548L19.2676 12.4369L23.062 7.27914L23.7183 17.456L8.26351 21.5971Z" fill="#F59E0B"/>
<path d="M22.7526 17.7146L9.2296 21.3381C8.69613 21.481 8.37955 22.0294 8.52249 22.5628L8.78131 23.5288C8.92425 24.0622 9.47259 24.3788 10.0061 24.2359L23.529 20.6124C24.0625 20.4695 24.3791 19.9211 24.2361 19.3877L23.9773 18.4217C23.8344 17.8883 23.286 17.5717 22.7526 17.7146Z" fill="#D97706"/>
<path d="M15.2147 16.629C16.2816 16.3431 16.9148 15.2465 16.6289 14.1795C16.343 13.1126 15.2463 12.4794 14.1794 12.7653C13.1125 13.0512 12.4793 14.1479 12.7652 15.2148C13.0511 16.2817 14.1478 16.9149 15.2147 16.629Z" fill="#EF4444"/>
<path d="M14.9557 15.663C15.4892 15.5201 15.8058 14.9717 15.6628 14.4383C15.5199 13.9048 14.9716 13.5882 14.4381 13.7312C13.9046 13.8741 13.588 14.4224 13.731 14.9559C13.8739 15.4894 14.4223 15.8059 14.9557 15.663Z" fill="#FCA5A5"/>
<path d="M10.6437 18.8886C11.1772 18.7457 11.4938 18.1973 11.3508 17.6638C11.2079 17.1304 10.6595 16.8138 10.1261 16.9567C9.59262 17.0997 9.27603 17.648 9.41898 18.1815C9.56192 18.715 10.1103 19.0315 10.6437 18.8886Z" fill="#60A5FA"/>
<path d="M20.3031 16.3007C20.8366 16.1578 21.1532 15.6094 21.0103 15.076C20.8673 14.5425 20.319 14.2259 19.7855 14.3689C19.252 14.5118 18.9355 15.0601 19.0784 15.5936C19.2213 16.1271 19.7697 16.4436 20.3031 16.3007Z" fill="#34D399"/>
</g>
<defs>
<clipPath id="clip0_49_1677">
<rect width="24" height="24" fill="white" transform="translate(0 6.21165) rotate(-15)"/>
</clipPath>
</defs>
</svg>
