<svg width="22" height="20" viewBox="0 0 22 20" fill="none" xmlns="http://www.w3.org/2000/svg">
<path d="M7.71173 17.0894L8.18876 16.5107H8.18876L7.71173 17.0894ZM10.75 3.06772L10.1982 3.57567C10.3402 3.72994 10.5403 3.81772 10.75 3.81772C10.9597 3.81772 11.1598 3.72994 11.3018 3.57567L10.75 3.06772ZM13.579 17.9202L14.0287 17.32H14.0287L13.579 17.9202ZM15.25 10.9093L14.723 11.443C15.0151 11.7315 15.4849 11.7315 15.777 11.443L15.25 10.9093ZM16.921 17.9202L16.4713 17.32V17.32L16.921 17.9202ZM7.71173 17.0894L8.18876 16.5107C5.13479 13.9934 1.5 11.5236 1.5 6.86999H0.75H0C0 12.3857 4.40407 15.335 7.2347 17.6681L7.71173 17.0894ZM0.75 6.86999H1.5C1.5 4.58996 2.73228 2.69605 4.38598 1.90567C5.9823 1.14272 8.1364 1.33587 10.1982 3.57567L10.75 3.06772L11.3018 2.55977C8.86376 -0.0887558 6.01786 -0.536799 3.73914 0.552301C1.5178 1.61398 0 4.06536 0 6.86999H0.75ZM7.71173 17.0894L7.2347 17.6681C7.74677 18.0902 8.29665 18.5405 8.85418 18.8811C9.4106 19.2211 10.051 19.501 10.75 19.501V18.751V18.001C10.449 18.001 10.0894 17.878 9.63625 17.6011C9.18422 17.3249 8.71496 16.9444 8.18876 16.5107L7.71173 17.0894ZM20.75 6.86999H21.5C21.5 4.06536 19.9822 1.61398 17.7609 0.552301C15.4821 -0.536799 12.6362 -0.0887558 10.1982 2.55977L10.75 3.06772L11.3018 3.57567C13.3636 1.33587 15.5177 1.14272 17.114 1.90567C18.7677 2.69605 20 4.58996 20 6.86999H20.75ZM9.75 12.8105H10.5C10.5 11.8414 11.0759 11.0232 11.8708 10.6779C12.6274 10.3491 13.6809 10.4138 14.723 11.443L15.25 10.9093L15.777 10.3757C14.3442 8.96074 12.6477 8.70481 11.273 9.30211C9.93661 9.88277 9 11.2372 9 12.8105H9.75ZM13.579 17.9202L13.1292 18.5204C13.408 18.7293 13.7285 18.9686 14.0582 19.1517C14.3885 19.3351 14.794 19.501 15.25 19.501V18.751V18.001C15.156 18.001 15.0115 17.9654 14.7865 17.8404C14.561 17.7151 14.3209 17.539 14.0287 17.32L13.579 17.9202ZM16.921 17.9202L17.3708 18.5204C18.1346 17.9481 19.1762 17.2475 19.9904 16.376C20.8303 15.477 21.5 14.3285 21.5 12.8105H20.75H20C20 13.8348 19.5643 14.6349 18.8943 15.352C18.1986 16.0966 17.3258 16.6797 16.4713 17.32L16.921 17.9202ZM16.921 17.9202L16.4713 17.32C16.1791 17.539 15.939 17.7151 15.7135 17.8404C15.4885 17.9654 15.344 18.001 15.25 18.001V18.751V19.501C15.706 19.501 16.1115 19.3351 16.4418 19.1517C16.7715 18.9686 17.092 18.7293 17.3708 18.5204L16.921 17.9202ZM20.75 12.8105H21.5C21.5 11.7766 21.0952 10.8373 20.4399 10.1508L19.8974 10.6687L19.3548 11.1865C19.7519 11.6025 20 12.174 20 12.8105H20.75ZM19.8974 10.6687L20.4399 10.1508C19.7704 9.44943 18.8332 9.00625 17.7973 9.00102C16.7533 8.99575 15.6758 9.43478 14.723 10.3757L15.25 10.9093L15.777 11.443C16.4861 10.7427 17.1945 10.498 17.7898 10.501C18.3933 10.5041 18.9488 10.7611 19.3548 11.1865L19.8974 10.6687ZM19.8974 10.6687L20.5739 10.9924C21.1495 9.78941 21.5 8.42887 21.5 6.86999H20.75H20C20 8.19343 19.7047 9.3336 19.2208 10.345L19.8974 10.6687ZM13.579 17.9202L14.0287 17.32C13.8864 17.2134 13.7405 17.1063 13.595 16.9997L13.1518 17.6048L12.7086 18.2098C12.8543 18.3165 12.9942 18.4192 13.1292 18.5204L13.579 17.9202ZM13.1518 17.6048L13.595 16.9997C11.9691 15.8088 10.5 14.6933 10.5 12.8105H9.75H9C9 15.5768 11.2273 17.1248 12.7086 18.2098L13.1518 17.6048ZM13.1518 17.6048L12.689 17.0146C11.8619 17.6633 11.2556 18.001 10.75 18.001V18.751V19.501C11.8328 19.501 12.815 18.8221 13.6147 18.1949L13.1518 17.6048Z" fill="#E01D1D"/>
</svg>
