<svg width="26" height="26" viewBox="0 0 26 26" fill="none" xmlns="http://www.w3.org/2000/svg">
<g filter="url(#filter0_d_386_21)">
<path d="M3 8C3 4.68629 5.68629 2 9 2H17C20.3137 2 23 4.68629 23 8V16C23 19.3137 20.3137 22 17 22H9C5.68629 22 3 19.3137 3 16V8Z" fill="#FFFBEB" shape-rendering="crispEdges"/>
<path d="M9 2.5H17C20.0376 2.5 22.5 4.96243 22.5 8V16C22.5 19.0376 20.0376 21.5 17 21.5H9C5.96243 21.5 3.5 19.0376 3.5 16V8C3.5 4.96243 5.96243 2.5 9 2.5Z" stroke="#FFB800" shape-rendering="crispEdges"/>
<path d="M12.7624 7.14745C12.7843 7.10318 12.8182 7.06591 12.8601 7.03986C12.9021 7.01381 12.9505 7 12.9999 7C13.0493 7 13.0977 7.01381 13.1397 7.03986C13.1817 7.06591 13.2155 7.10318 13.2374 7.14745L14.3924 9.48695C14.4685 9.64093 14.5808 9.77415 14.7197 9.87517C14.8586 9.9762 15.02 10.042 15.1899 10.0669L17.7729 10.4449C17.8219 10.452 17.8678 10.4727 17.9057 10.5045C17.9435 10.5364 17.9716 10.5782 17.9869 10.6253C18.0022 10.6723 18.0041 10.7227 17.9922 10.7707C17.9804 10.8187 17.9553 10.8624 17.9199 10.8969L16.0519 12.7159C15.9287 12.836 15.8366 12.9842 15.7833 13.1478C15.7301 13.3113 15.7175 13.4854 15.7464 13.6549L16.1874 16.2249C16.1961 16.2739 16.1908 16.3242 16.1722 16.3703C16.1536 16.4163 16.1224 16.4563 16.0822 16.4854C16.042 16.5146 15.9944 16.5319 15.9449 16.5354C15.8953 16.5388 15.8458 16.5283 15.8019 16.5049L13.4929 15.2909C13.3408 15.2111 13.1715 15.1693 12.9997 15.1693C12.8278 15.1693 12.6586 15.2111 12.5064 15.2909L10.1979 16.5049C10.1541 16.5282 10.1046 16.5386 10.0551 16.5351C10.0057 16.5316 9.95818 16.5142 9.91807 16.4851C9.87796 16.4559 9.84684 16.416 9.82825 16.3701C9.80966 16.3241 9.80435 16.2738 9.81292 16.2249L10.2534 13.6554C10.2825 13.4858 10.2699 13.3116 10.2167 13.148C10.1635 12.9843 10.0712 12.836 9.94792 12.7159L8.07992 10.8974C8.04422 10.863 8.01892 10.8191 8.0069 10.771C7.99489 10.7228 7.99664 10.6723 8.01196 10.625C8.02728 10.5778 8.05556 10.5359 8.09356 10.5039C8.13157 10.472 8.17778 10.4514 8.22692 10.4444L10.8094 10.0669C10.9796 10.0422 11.1411 9.97648 11.2802 9.87544C11.4193 9.77441 11.5318 9.64108 11.6079 9.48695L12.7624 7.14745Z" fill="#FFB800" stroke="#FFB800" stroke-width="0.75" stroke-linecap="round" stroke-linejoin="round"/>
</g>
<defs>
<filter id="filter0_d_386_21" x="0" y="0" width="26" height="26" filterUnits="userSpaceOnUse" color-interpolation-filters="sRGB">
<feFlood flood-opacity="0" result="BackgroundImageFix"/>
<feColorMatrix in="SourceAlpha" type="matrix" values="0 0 0 0 0 0 0 0 0 0 0 0 0 0 0 0 0 0 127 0" result="hardAlpha"/>
<feOffset dy="1"/>
<feGaussianBlur stdDeviation="1.5"/>
<feComposite in2="hardAlpha" operator="out"/>
<feColorMatrix type="matrix" values="0 0 0 0 0 0 0 0 0 0 0 0 0 0 0 0 0 0 0.08 0"/>
<feBlend mode="normal" in2="BackgroundImageFix" result="effect1_dropShadow_386_21"/>
<feBlend mode="normal" in="SourceGraphic" in2="effect1_dropShadow_386_21" result="shape"/>
</filter>
</defs>
</svg>
